<svg width="22" height="25" viewBox="0 0 22 25" fill="none" xmlns="http://www.w3.org/2000/svg">
<path d="M7.3146 11.2529V4.93104C7.3146 2.83617 8.96453 1.13793 10.9999 1.13793C13.0354 1.13793 14.6853 2.83617 14.6853 4.93104V11.2115M9.03443 23.8966H12.9655C15.7174 23.8966 17.0934 23.8966 18.1446 23.3453C19.0691 22.8604 19.8208 22.0867 20.2919 21.1352C20.8275 20.0533 20.8275 18.637 20.8275 15.8046V12.7701C20.8275 11.3539 20.8275 10.6457 20.5597 10.1048C20.3242 9.62903 19.9483 9.24219 19.4861 8.99976C18.9605 8.72414 18.2725 8.72414 16.8965 8.72414H5.1034C3.72741 8.72414 3.03941 8.72414 2.51385 8.99976C2.05155 9.24219 1.6757 9.62903 1.44015 10.1048C1.17236 10.6457 1.17236 11.3539 1.17236 12.7701V15.8046C1.17236 18.637 1.17236 20.0533 1.70793 21.1352C2.17904 22.0867 2.93075 22.8604 3.85534 23.3453C4.90645 23.8966 6.28245 23.8966 9.03443 23.8966Z" stroke="black" stroke-width="2" stroke-linecap="round" stroke-linejoin="round"/>
</svg>
