<svg width="180" height="100" viewBox="0 0 180 100" fill="none" xmlns="http://www.w3.org/2000/svg">
<g clip-path="url(#clip0_46_141)">
<path d="M50 100C77.6142 100 100 77.6142 100 50C100 22.3858 77.6142 0 50 0C22.3858 0 0 22.3858 0 50C0 77.6142 22.3858 100 50 100Z" fill="#FFE356"/>
<path d="M72.4583 37.1303C72.4583 43.1953 71.006 46.2211 69.0962 48.7359C68.0339 50.4842 66.7429 52.0846 65.2501 53.4832C62.7757 56.9527 60.5703 61.9959 60.4626 73.0904C60.4626 73.6283 60.0189 74.0586 59.4945 74.0586H40.0351C39.4972 74.0586 39.0667 73.6283 39.0667 73.0904C38.9457 61.9822 36.7537 56.9393 34.2792 53.4832C32.7999 52.0846 31.4955 50.4844 30.4332 48.7359C28.5371 46.2211 27.071 43.2088 27.071 37.1303C27.071 7.04688 72.4583 7.04688 72.4583 37.1303Z" fill="#FEFEFE"/>
<path d="M41.9714 74.0586H57.5578V82.3158C57.5578 82.8135 57.1543 83.2033 56.6703 83.2033H42.8591C42.3615 83.2033 41.9716 82.7998 41.9716 82.3158V74.0586H41.9714Z" fill="#E4E7ED"/>
<path d="M41.9177 75.9279H57.6117C58.1361 75.9279 58.5531 76.3582 58.5531 76.8693C58.5531 77.3938 58.1228 77.8107 57.6117 77.8107H41.9177C41.3933 77.8107 40.9763 77.3805 40.9763 76.8693C40.9763 76.3447 41.4066 75.9279 41.9177 75.9279Z" fill="#FEFEFE"/>
<path d="M43.4644 83.2033H56.0651L55.4331 84.2926C55.0163 85.0053 54.2497 85.4223 53.362 85.4223H46.1673C45.2798 85.4223 44.5132 85.0055 44.0962 84.2926L43.4644 83.2033Z" fill="#6C7678"/>
<path d="M41.9177 79.3168H57.6117C58.1361 79.3168 58.5531 79.7471 58.5531 80.2582C58.5531 80.7826 58.1228 81.1996 57.6117 81.1996H41.9177C41.3933 81.1996 40.9763 80.7693 40.9763 80.2582C40.9763 79.7338 41.4066 79.3168 41.9177 79.3168Z" fill="#FEFEFE"/>
<path d="M65.1425 28.5234C37.2376 26.291 44.7821 52.2594 57.8267 44.1635C63.811 40.4518 61.7938 30.9441 65.1425 28.5234Z" fill="#5FDC68"/>
<path d="M61.5115 30.9307C46.3958 33.4723 49.4888 59.0371 49.7712 70.0512L48.265 70.0646C47.9827 59.1312 45.7369 32.4906 61.5115 30.9307Z" fill="#5D718F"/>
<path d="M34.4136 41.7428C52.4341 39.2012 48.5341 54.8008 40.4786 50.4975C36.5114 48.3728 36.7938 42.9264 34.4136 41.7428Z" fill="#5FDC68"/>
<path d="M48.9509 56.6703L48.5206 56.6973C46.9202 45.6967 39.2548 44.8361 39.228 44.8227C44.7417 45.6832 48.5341 49.7311 48.9509 56.6703Z" fill="#5D718F"/>
<path d="M67.2808 48.1172C63.233 53.483 58.8892 58.0553 58.6472 74.0451H59.4945C60.0324 74.0451 60.4626 73.6148 60.4626 73.077C60.5837 61.9688 62.7757 56.9258 65.2501 53.4697C66.7294 52.0711 68.0339 50.4709 69.0962 48.7225C77.5148 37.601 71.3017 19.809 57.3425 15.7746C69.9972 20.5756 75.215 37.5875 67.2671 48.1172H67.2808Z" fill="#F6F7FA"/>
<path d="M41.1108 69.7149C41.6622 69.7149 42.1731 69.8762 42.5901 70.1586C43.2761 69.0693 44.4862 68.3432 45.8714 68.3432C46.9337 68.3432 47.8886 68.7734 48.588 69.4594C48.978 69.2307 49.4353 69.1098 49.9327 69.1098C50.3228 69.1098 50.6993 69.1904 51.0354 69.3518C51.7214 68.7332 52.6358 68.3566 53.631 68.3566C55.0161 68.3566 56.2265 69.0828 56.9122 70.1721C57.3425 69.8897 57.8536 69.7283 58.3915 69.7283C59.2388 69.7283 60.0054 70.1184 60.5028 70.7369C60.4759 71.49 60.4491 72.2834 60.4491 73.1037C60.4491 73.6416 60.0054 74.0721 59.4808 74.0721H40.0216C39.4837 74.0721 39.0532 73.6418 39.0532 73.1037C39.0397 72.2834 39.0263 71.4899 38.9995 70.7369C39.4972 70.1184 40.2636 69.7283 41.1108 69.7283V69.7149Z" fill="#FF7069"/>
<path d="M60.5299 70.9791C60.503 71.6516 60.4895 72.3642 60.4762 73.0904C60.4762 73.6283 60.0325 74.0586 59.5081 74.0586H40.0487C39.5108 74.0586 39.0803 73.6283 39.0803 73.0904C39.0668 72.3642 39.0534 71.6648 39.0266 70.9791C39.5108 70.5756 40.1428 70.3336 40.8153 70.3336C41.3801 70.3336 41.918 70.5084 42.3483 70.7908C43.061 69.6611 44.3118 68.908 45.7506 68.908C46.8534 68.908 47.8485 69.3518 48.5747 70.0644C48.9782 69.8357 49.4622 69.7014 49.9598 69.7014C50.3633 69.7014 50.7532 69.7955 51.103 69.9433C51.8157 69.2978 52.7571 68.9078 53.7926 68.9078C55.2315 68.9078 56.4823 69.6609 57.195 70.7906C57.6387 70.4947 58.1631 70.3334 58.728 70.3334C59.4139 70.3334 60.0325 70.5754 60.5167 70.9789H60.5299V70.9791Z" fill="#F7635B"/>
</g>
<path d="M111.264 22V7.45455H121.065V9.99006H114.339V13.456H120.561V15.9915H114.339V19.4645H121.094V22H111.264ZM136.344 12.5469H133.233C133.176 12.1444 133.06 11.7869 132.885 11.4744C132.71 11.1572 132.485 10.8873 132.211 10.6648C131.936 10.4422 131.619 10.2718 131.259 10.1534C130.904 10.035 130.518 9.97585 130.101 9.97585C129.348 9.97585 128.693 10.1629 128.134 10.5369C127.575 10.9062 127.142 11.446 126.834 12.1562C126.526 12.8617 126.373 13.7187 126.373 14.7273C126.373 15.7642 126.526 16.6354 126.834 17.3409C127.147 18.0464 127.582 18.5791 128.141 18.9389C128.7 19.2988 129.346 19.4787 130.08 19.4787C130.492 19.4787 130.873 19.4242 131.223 19.3153C131.578 19.2064 131.893 19.0478 132.168 18.8395C132.443 18.6264 132.67 18.3684 132.85 18.0653C133.034 17.7623 133.162 17.4167 133.233 17.0284L136.344 17.0426C136.264 17.7102 136.062 18.3542 135.74 18.9744C135.423 19.59 134.995 20.1416 134.455 20.6293C133.92 21.1122 133.281 21.4957 132.537 21.7798C131.799 22.0592 130.963 22.1989 130.03 22.1989C128.733 22.1989 127.573 21.9053 126.55 21.3182C125.532 20.7311 124.727 19.8812 124.135 18.7685C123.548 17.6558 123.255 16.3087 123.255 14.7273C123.255 13.1411 123.553 11.7917 124.15 10.679C124.746 9.56629 125.556 8.71875 126.578 8.13636C127.601 7.54924 128.752 7.25568 130.03 7.25568C130.873 7.25568 131.654 7.37405 132.374 7.6108C133.098 7.84754 133.74 8.19318 134.299 8.64773C134.857 9.09754 135.312 9.64915 135.662 10.3026C136.017 10.956 136.245 11.7041 136.344 12.5469ZM151.916 14.7273C151.916 16.3134 151.615 17.6629 151.014 18.7756C150.417 19.8883 149.603 20.7382 148.571 21.3253C147.543 21.9077 146.388 22.1989 145.105 22.1989C143.812 22.1989 142.652 21.9053 141.625 21.3182C140.597 20.7311 139.785 19.8812 139.189 18.7685C138.592 17.6558 138.294 16.3087 138.294 14.7273C138.294 13.1411 138.592 11.7917 139.189 10.679C139.785 9.56629 140.597 8.71875 141.625 8.13636C142.652 7.54924 143.812 7.25568 145.105 7.25568C146.388 7.25568 147.543 7.54924 148.571 8.13636C149.603 8.71875 150.417 9.56629 151.014 10.679C151.615 11.7917 151.916 13.1411 151.916 14.7273ZM148.798 14.7273C148.798 13.6998 148.644 12.8333 148.336 12.1278C148.033 11.4223 147.605 10.8873 147.051 10.5227C146.497 10.1581 145.848 9.97585 145.105 9.97585C144.361 9.97585 143.713 10.1581 143.159 10.5227C142.605 10.8873 142.174 11.4223 141.866 12.1278C141.563 12.8333 141.412 13.6998 141.412 14.7273C141.412 15.7547 141.563 16.6212 141.866 17.3267C142.174 18.0322 142.605 18.5672 143.159 18.9318C143.713 19.2964 144.361 19.4787 145.105 19.4787C145.848 19.4787 146.497 19.2964 147.051 18.9318C147.605 18.5672 148.033 18.0322 148.336 17.3267C148.644 16.6212 148.798 15.7547 148.798 14.7273Z" fill="#008447"/>
<path d="M111.264 46V31.4545H114.339V43.4645H120.575V46H111.264ZM122.555 46V35.0909H125.581V46H122.555ZM124.075 33.6847C123.625 33.6847 123.239 33.5355 122.917 33.2372C122.6 32.9342 122.441 32.572 122.441 32.1506C122.441 31.7339 122.6 31.3764 122.917 31.0781C123.239 30.7751 123.625 30.6236 124.075 30.6236C124.525 30.6236 124.908 30.7751 125.225 31.0781C125.547 31.3764 125.708 31.7339 125.708 32.1506C125.708 32.572 125.547 32.9342 125.225 33.2372C124.908 33.5355 124.525 33.6847 124.075 33.6847ZM132.919 50.3182C131.939 50.3182 131.098 50.1832 130.398 49.9134C129.702 49.6482 129.148 49.286 128.736 48.8267C128.324 48.3674 128.056 47.8513 127.933 47.2784L130.732 46.902C130.817 47.1198 130.952 47.3234 131.136 47.5128C131.321 47.7022 131.565 47.8537 131.868 47.9673C132.176 48.0857 132.55 48.1449 132.99 48.1449C133.648 48.1449 134.19 47.9839 134.616 47.6619C135.047 47.3447 135.263 46.812 135.263 46.0639V44.0682H135.135C135.002 44.3712 134.804 44.6577 134.538 44.9276C134.273 45.1974 133.932 45.4176 133.516 45.5881C133.099 45.7585 132.602 45.8438 132.024 45.8438C131.205 45.8438 130.459 45.6544 129.787 45.2756C129.119 44.892 128.587 44.3073 128.189 43.5213C127.796 42.7306 127.599 41.7315 127.599 40.5241C127.599 39.2884 127.801 38.2562 128.203 37.4276C128.606 36.599 129.141 35.9787 129.808 35.5668C130.481 35.1548 131.217 34.9489 132.017 34.9489C132.628 34.9489 133.139 35.053 133.551 35.2614C133.963 35.465 134.295 35.7206 134.545 36.0284C134.801 36.3314 134.998 36.6297 135.135 36.9233H135.249V35.0909H138.253V46.1065C138.253 47.0346 138.026 47.8111 137.571 48.4361C137.116 49.0611 136.487 49.5298 135.682 49.8423C134.882 50.1596 133.961 50.3182 132.919 50.3182ZM132.983 43.571C133.471 43.571 133.883 43.4503 134.219 43.2088C134.56 42.9626 134.82 42.6122 135 42.1577C135.185 41.6984 135.277 41.1491 135.277 40.5099C135.277 39.8707 135.187 39.3168 135.007 38.848C134.827 38.3745 134.567 38.0076 134.226 37.7472C133.885 37.4867 133.471 37.3565 132.983 37.3565C132.486 37.3565 132.067 37.4915 131.726 37.7614C131.385 38.0265 131.127 38.3958 130.952 38.8693C130.777 39.3428 130.689 39.8897 130.689 40.5099C130.689 41.1397 130.777 41.6842 130.952 42.1435C131.132 42.598 131.39 42.9508 131.726 43.2017C132.067 43.4479 132.486 43.571 132.983 43.571ZM143.686 39.6932V46H140.661V31.4545H143.601V37.0156H143.729C143.975 36.3717 144.373 35.8674 144.922 35.5028C145.471 35.1335 146.16 34.9489 146.989 34.9489C147.746 34.9489 148.407 35.1146 148.97 35.446C149.538 35.7727 149.979 36.2438 150.291 36.8594C150.608 37.4702 150.765 38.2017 150.76 39.054V46H147.734V39.5938C147.739 38.9214 147.569 38.3982 147.223 38.0241C146.882 37.6501 146.404 37.4631 145.788 37.4631C145.376 37.4631 145.012 37.5507 144.695 37.7259C144.382 37.901 144.136 38.1567 143.956 38.4929C143.781 38.8243 143.691 39.2244 143.686 39.6932ZM158.944 35.0909V37.3636H152.374V35.0909H158.944ZM153.865 32.4773H156.891V42.6477C156.891 42.9271 156.934 43.1449 157.019 43.3011C157.104 43.4527 157.222 43.5592 157.374 43.6207C157.53 43.6823 157.71 43.7131 157.914 43.7131C158.056 43.7131 158.198 43.7012 158.34 43.6776C158.482 43.6491 158.591 43.6278 158.667 43.6136L159.142 45.8651C158.991 45.9124 158.778 45.9669 158.503 46.0284C158.229 46.0947 157.895 46.1349 157.502 46.1491C156.773 46.1776 156.133 46.0805 155.584 45.858C155.04 45.6354 154.616 45.2898 154.313 44.821C154.01 44.3523 153.861 43.7604 153.865 43.0455V32.4773Z" fill="#C9C900"/>
<path d="M111.264 70V55.4545H117.088C118.158 55.4545 119.051 55.6132 119.766 55.9304C120.481 56.2476 121.018 56.688 121.378 57.2514C121.738 57.8101 121.918 58.4541 121.918 59.1832C121.918 59.7514 121.804 60.2509 121.577 60.6818C121.349 61.108 121.037 61.4583 120.639 61.733C120.246 62.0028 119.796 62.1946 119.29 62.3082V62.4503C119.844 62.474 120.362 62.6302 120.845 62.919C121.333 63.2079 121.728 63.6127 122.031 64.1335C122.334 64.6496 122.486 65.2652 122.486 65.9801C122.486 66.7519 122.294 67.4408 121.911 68.0469C121.532 68.6482 120.971 69.1241 120.227 69.4744C119.484 69.8248 118.568 70 117.479 70H111.264ZM114.339 67.4858H116.847C117.704 67.4858 118.329 67.3224 118.722 66.9957C119.115 66.6643 119.311 66.224 119.311 65.6747C119.311 65.2723 119.214 64.9171 119.02 64.6094C118.826 64.3016 118.549 64.0601 118.189 63.8849C117.834 63.7098 117.41 63.6222 116.918 63.6222H114.339V67.4858ZM114.339 61.5412H116.619C117.041 61.5412 117.415 61.4678 117.741 61.321C118.073 61.1695 118.333 60.9564 118.523 60.6818C118.717 60.4072 118.814 60.0781 118.814 59.6946C118.814 59.169 118.627 58.7453 118.253 58.4233C117.884 58.1013 117.358 57.9403 116.676 57.9403H114.339V61.5412ZM131.426 65.3551V59.0909H134.451V70H131.547V68.0185H131.433C131.187 68.6577 130.777 69.1714 130.204 69.5597C129.636 69.9479 128.942 70.142 128.123 70.142C127.394 70.142 126.752 69.9763 126.199 69.6449C125.645 69.3134 125.211 68.8423 124.899 68.2315C124.591 67.6207 124.435 66.8892 124.43 66.0369V59.0909H127.456V65.4972C127.46 66.1411 127.633 66.6501 127.974 67.0241C128.315 67.3982 128.772 67.5852 129.345 67.5852C129.709 67.5852 130.05 67.5024 130.368 67.3366C130.685 67.1662 130.94 66.9152 131.135 66.5838C131.333 66.2524 131.431 65.8428 131.426 65.3551ZM139.897 55.4545V70H136.871V55.4545H139.897ZM142.377 70V55.4545H145.403V60.9233H145.495C145.628 60.6297 145.82 60.3314 146.071 60.0284C146.326 59.7206 146.658 59.465 147.065 59.2614C147.477 59.053 147.988 58.9489 148.599 58.9489C149.395 58.9489 150.128 59.1572 150.801 59.5739C151.473 59.9858 152.011 60.6084 152.413 61.4418C152.815 62.2704 153.017 63.3097 153.017 64.5597C153.017 65.7765 152.82 66.804 152.427 67.642C152.039 68.4754 151.509 69.1075 150.836 69.5384C150.169 69.9645 149.421 70.1776 148.592 70.1776C148.005 70.1776 147.505 70.0805 147.093 69.8864C146.686 69.6922 146.352 69.4484 146.092 69.1548C145.832 68.8565 145.633 68.5559 145.495 68.2528H145.36V70H142.377ZM145.339 64.5455C145.339 65.1941 145.429 65.7599 145.609 66.2429C145.789 66.7259 146.049 67.1023 146.39 67.3722C146.731 67.6373 147.145 67.7699 147.633 67.7699C148.126 67.7699 148.542 67.6349 148.883 67.3651C149.224 67.0904 149.482 66.7116 149.657 66.2287C149.837 65.741 149.927 65.1799 149.927 64.5455C149.927 63.9157 149.84 63.3617 149.664 62.8835C149.489 62.4053 149.231 62.0312 148.89 61.7614C148.549 61.4915 148.13 61.3565 147.633 61.3565C147.141 61.3565 146.724 61.4867 146.383 61.7472C146.047 62.0076 145.789 62.3769 145.609 62.8551C145.429 63.3333 145.339 63.8968 145.339 64.5455ZM111.264 79.4545H115.057L119.062 89.2273H119.233L123.239 79.4545H127.031V94H124.048V84.5327H123.928L120.163 93.929H118.132L114.368 84.4972H114.247V94H111.264V79.4545ZM132.619 94.206C131.923 94.206 131.303 94.0852 130.758 93.8438C130.214 93.5975 129.783 93.2353 129.466 92.7571C129.153 92.2741 128.997 91.6728 128.997 90.9531C128.997 90.3471 129.108 89.8381 129.331 89.4261C129.553 89.0142 129.856 88.6828 130.24 88.4318C130.623 88.1809 131.059 87.9915 131.547 87.8636C132.039 87.7358 132.555 87.6458 133.095 87.5938C133.729 87.5275 134.241 87.4659 134.629 87.4091C135.017 87.3475 135.299 87.2576 135.474 87.1392C135.649 87.0208 135.737 86.8456 135.737 86.6136V86.571C135.737 86.1212 135.595 85.7732 135.311 85.527C135.031 85.2808 134.634 85.1577 134.118 85.1577C133.573 85.1577 133.14 85.2784 132.818 85.5199C132.496 85.7566 132.283 86.0549 132.179 86.4148L129.38 86.1875C129.522 85.5246 129.802 84.9517 130.218 84.4688C130.635 83.9811 131.172 83.607 131.831 83.3466C132.493 83.0814 133.261 82.9489 134.132 82.9489C134.738 82.9489 135.318 83.0199 135.872 83.1619C136.431 83.304 136.925 83.5241 137.356 83.8224C137.792 84.1207 138.135 84.5043 138.386 84.973C138.637 85.437 138.762 85.9934 138.762 86.642V94H135.893V92.4872H135.808C135.633 92.8281 135.398 93.1288 135.105 93.3892C134.811 93.6449 134.458 93.8461 134.047 93.9929C133.635 94.1349 133.159 94.206 132.619 94.206ZM133.485 92.1179C133.931 92.1179 134.324 92.0303 134.664 91.8551C135.005 91.6752 135.273 91.4337 135.467 91.1307C135.661 90.8277 135.758 90.4844 135.758 90.1009V88.9432C135.663 89.0047 135.533 89.0616 135.368 89.1136C135.207 89.161 135.024 89.206 134.821 89.2486C134.617 89.2865 134.413 89.322 134.21 89.3551C134.006 89.3835 133.822 89.4096 133.656 89.4332C133.301 89.4853 132.991 89.5682 132.725 89.6818C132.46 89.7955 132.254 89.9493 132.108 90.1435C131.961 90.3329 131.887 90.5696 131.887 90.8537C131.887 91.2656 132.037 91.5805 132.335 91.7983C132.638 92.0114 133.021 92.1179 133.485 92.1179ZM141.11 94V83.0909H144.043V84.9943H144.157C144.355 84.3172 144.689 83.8059 145.158 83.4602C145.627 83.1098 146.167 82.9347 146.777 82.9347C146.929 82.9347 147.092 82.9441 147.267 82.9631C147.443 82.982 147.596 83.008 147.729 83.0412V85.7259C147.587 85.6832 147.391 85.6454 147.14 85.6122C146.889 85.5791 146.659 85.5625 146.451 85.5625C146.006 85.5625 145.608 85.6596 145.257 85.8537C144.912 86.0431 144.637 86.3082 144.434 86.6491C144.235 86.9901 144.135 87.383 144.135 87.8281V94H141.11ZM152.035 90.8608L152.042 87.2315H152.482L155.977 83.0909H159.45L154.755 88.5739H154.038L152.035 90.8608ZM149.293 94V79.4545H152.319V94H149.293ZM156.112 94L152.901 89.2486L154.918 87.1108L159.656 94H156.112ZM165.456 94.2131C164.334 94.2131 163.368 93.9858 162.559 93.5312C161.754 93.072 161.133 92.4233 160.698 91.5852C160.262 90.7424 160.044 89.7457 160.044 88.5952C160.044 87.473 160.262 86.4882 160.698 85.6406C161.133 84.7931 161.747 84.1326 162.537 83.6591C163.333 83.1856 164.266 82.9489 165.336 82.9489C166.055 82.9489 166.725 83.0649 167.346 83.2969C167.971 83.5241 168.515 83.8674 168.979 84.3267C169.448 84.786 169.812 85.3636 170.073 86.0597C170.333 86.7509 170.463 87.5606 170.463 88.4886V89.3196H161.252V87.4446H167.615C167.615 87.009 167.521 86.6231 167.331 86.2869C167.142 85.9508 166.879 85.688 166.543 85.4986C166.212 85.3045 165.826 85.2074 165.385 85.2074C164.926 85.2074 164.519 85.3139 164.164 85.527C163.813 85.7353 163.539 86.017 163.34 86.3722C163.141 86.7225 163.039 87.1132 163.034 87.544V89.3267C163.034 89.8665 163.134 90.3329 163.333 90.7259C163.536 91.1188 163.823 91.4219 164.192 91.6349C164.561 91.848 164.999 91.9545 165.506 91.9545C165.842 91.9545 166.15 91.9072 166.429 91.8125C166.709 91.7178 166.948 91.5758 167.147 91.3864C167.346 91.197 167.497 90.965 167.601 90.6903L170.4 90.875C170.257 91.5473 169.966 92.1345 169.526 92.6364C169.09 93.1335 168.527 93.5218 167.836 93.8011C167.149 94.0758 166.356 94.2131 165.456 94.2131ZM178.24 83.0909V85.3636H171.671V83.0909H178.24ZM173.162 80.4773H176.188V90.6477C176.188 90.9271 176.23 91.1449 176.316 91.3011C176.401 91.4527 176.519 91.5592 176.671 91.6207C176.827 91.6823 177.007 91.7131 177.211 91.7131C177.353 91.7131 177.495 91.7012 177.637 91.6776C177.779 91.6491 177.888 91.6278 177.963 91.6136L178.439 93.8651C178.288 93.9124 178.075 93.9669 177.8 94.0284C177.525 94.0947 177.192 94.1349 176.799 94.1491C176.069 94.1776 175.43 94.0805 174.881 93.858C174.337 93.6354 173.913 93.2898 173.61 92.821C173.307 92.3523 173.158 91.7604 173.162 91.0455V80.4773Z" fill="black"/>
<defs>
<clipPath id="clip0_46_141">
<rect width="100" height="100" fill="white"/>
</clipPath>
</defs>
</svg>
